<svg version="1.1" xmlns="http://www.w3.org/2000/svg" xmlns:xlink="http://www.w3.org/1999/xlink" width="140.001" height="86.275" viewBox="0,0,140.001,86.275"><g transform="translate(-169.9995,-136.8625)"><g data-paper-data="{&quot;isPaintingLayer&quot;:true}" fill-rule="nonzero" stroke-linejoin="miter" stroke-miterlimit="10" stroke-dasharray="" stroke-dashoffset="0" style="mix-blend-mode: normal"><path d="M274.80183,140.82017l-0.78967,51.43067l-67.93697,0.13667l-0.2457,-51.53834z" fill="#bbbbbb" stroke="none" stroke-width="1" stroke-linecap="butt"/><path d="M277.97183,136.8625l-0.53367,59.431l-74.36633,0.512l-0.29067,-59.53233zM274.13517,141.1535l-67.97233,-0.30433l0.73667,51.20833l66.446,-0.14z" fill="#848484" stroke="none" stroke-width="1" stroke-linecap="butt"/><g stroke="none" stroke-width="1" stroke-linecap="butt"><path d="M186.6705,216.6175h-16.671l33.119,-20.963h73.764l33.118,20.963h-12.176l0.008,-0.015l-111.166,0.01z" fill="#383838"/><path d="M309.9765,216.6025l-5.952,6.535h-128.333l-5.628,-6.535z" fill="#060606"/></g><g fill="#000000" stroke="none" stroke-width="1" stroke-linecap="butt"><path d="M237.803,200.363h-3.662l0.151,-1.093h3.501z"/><path d="M219.282,200.363l0.679,-1.093h5.963l-0.41,1.093z"/><path d="M261.778,197.436l0.818,0.947h-5.263l-0.608,-0.947z"/><path d="M250.058,200.363h-6.766l-0.165,-1.093h6.494z"/><path d="M242.396,200.363h-3.706l-0.009,-1.093h3.549z"/><path d="M224.367,203.422l-0.458,1.224h-7.283l0.759,-1.224z"/><path d="M264.304,200.363h-5.699l-0.702,-1.093h5.457z"/><path d="M257.551,200.363h-6.538l-0.437,-1.093h6.273z"/><path d="M226.461,200.363l0.41,-1.093h6.525l-0.151,1.093z"/><path d="M237.831,203.422l0.01,1.224h-4.292l0.169,-1.224z"/><path d="M249.268,198.383h-6.275l-0.142,-0.947h6.039z"/><path d="M243.041,204.646h-4.313l-0.011,-1.224h4.139z"/><path d="M242.097,198.383h-3.425l-0.008,-0.947h3.29z"/><path d="M221.098,197.436h5.513l-0.355,0.947h-5.745z"/><path d="M211.476,200.363h-5.264l1.144,-1.093h5.035z"/><path d="M256.278,198.383h-6.055l-0.378,-0.947h5.825z"/><path d="M232.654,204.646h-7.798l0.459,-1.224h7.508z"/><path d="M215.082,197.436h4.973l-0.588,0.947h-5.178z"/><path d="M250.925,202.535h-7.306l-0.193,-1.285h6.985z"/><path d="M258.947,202.535h-7.067l-0.513,-1.285h6.754z"/><path d="M262.95,197.436h4.553l1.013,0.947h-4.748z"/><path d="M266.177,202.535h-6.175l-0.826,-1.285h5.892z"/><path d="M208.916,203.422l-1.024,1.224h-6.16l1.28,-1.224z"/><path d="M213.133,198.383h-4.849l0.99,-0.947h4.651z"/><path d="M209.658,202.535h-5.718l1.344,-1.285h5.449z"/><path d="M264.532,199.27h4.931l1.169,1.093h-5.156z"/><path d="M212.632,200.363l0.915,-1.093h5.37l-0.678,1.093z"/><path d="M216.342,203.422l-0.759,1.224h-6.534l1.024,-1.224z"/><path d="M242.723,202.535h-4.014l-0.011,-1.285h3.83z"/><path d="M210.814,202.535l1.076,-1.285h5.799l-0.797,1.285z"/><path d="M237.823,202.535h-3.982l0.178,-1.285h3.792z"/><path d="M224.7,202.535h-6.764l0.796,-1.285h6.45z"/><path d="M225.647,202.535l0.482,-1.285h6.994l-0.178,1.285z"/><path d="M237.786,198.383h-3.371l0.13,-0.947h3.232z"/><path d="M200.448,204.646h-5.679l1.51,-1.224h5.45z"/><path d="M223.577,205.532l-0.631,1.682h-7.913l1.044,-1.682z"/><path d="M272.879,201.25h5.032l1.621,1.285h-5.28z"/><path d="M251.278,203.422l0.489,1.224h-7.829l-0.185,-1.224z"/><path d="M277.456,205.532h5.856l2.122,1.682h-6.181z"/><path d="M237.864,207.214h-13.595h-0.375l0.63,-1.682h13.325z"/><path d="M202.656,202.535h-5.282l1.587,-1.285h5.039z"/><path d="M275.2,203.422h5.45l1.544,1.224h-5.686z"/><path d="M207,198.383h-4.499l1.17,-0.947h4.32z"/><path d="M252.792,207.214h-14.041l-0.015,-1.682h13.384z"/><path d="M204.928,200.363h-4.872l1.35,-1.093h4.666z"/><path d="M277.955,207.214h-6.57l-1.451,-1.682h6.223z"/><path d="M270.762,199.27h4.651l1.38,1.093h-4.862z"/><path d="M269.813,198.383l-1.012,-0.947h4.299l1.195,0.947z"/><path d="M259.517,203.422l0.786,1.224h-7.581l-0.489,-1.224z"/><path d="M268.113,203.422h5.788l1.308,1.224h-6.04z"/><path d="M215.033,205.532l-1.043,1.682h-7.091l1.408,-1.682z"/><path d="M268.762,205.532l1.451,1.682h-7.205l-1.08,-1.682z"/><path d="M266.24,201.25h5.34l1.373,1.285h-5.604z"/><path d="M227.204,198.383l0.355,-0.947h0.375h5.715l-0.13,0.947z"/><path d="M260.873,205.532l1.08,1.682h-8.206l-0.671,-1.682z"/><path d="M266.941,203.422l1.056,1.224h-6.64l-0.786,-1.224z"/><path d="M199.521,205.532l-1.759,1.682h-6.165l2.077,-1.682z"/><path d="M207.15,205.532l-1.407,1.682h-6.698l1.76,-1.682z"/><path d="M237.895,210.59h-15.266l0.925,-2.469c0.127,0 0.248,0 0.375,0c5.255,0 9.913,0 13.944,-0.001z"/><path d="M254.493,211.477l0.645,1.615l-33.073,0.002h-0.375l0.606,-1.617z"/><path d="M253.15,208.114l0.988,2.476h-15.357l-0.022,-2.47c6.707,-0.001 11.561,-0.003 14.391,-0.006z"/></g><g stroke-width="2"><path d="M232.05045,183.75212c-3.15278,-2.03662 -4.51971,-6.19679 -3.05312,-9.29201c1.46659,-3.09523 5.21133,-3.9534 8.36411,-1.91679c3.15278,2.03662 4.51971,6.19679 3.05312,9.29201c-1.46659,3.09523 -5.21133,3.9534 -8.36411,1.91679z" fill="none" stroke="#b90000" stroke-linecap="butt"/><g><g stroke="#000000"><path d="M230.30433,175.28731c0,0 0.3187,-1.22972 0.01725,-2.15876c-0.26964,-0.83095 -1.74117,-3.15412 -1.74117,-3.15412c0,0 -3.96751,-2.81141 -3.67722,-5.57919c0.03295,-0.31418 1.28476,-7.15217 5.28154,-10.99464c2.85672,-2.74643 8.64396,-2.99034 9.38862,-2.68248c0.57561,0.23798 4.20657,0.63434 7.55945,2.15906c4.72515,2.14875 9.0954,5.37617 9.0954,5.37617l-1.74792,11.23765l-17.25856,-0.23259l0.54015,6.08847z" fill="#949494" stroke-linecap="butt"/><path d="M255.51379,164.30173l-10.77653,-2.245l-2.72555,-2.76946l-2.68166,-8.26448l9.20026,3.01745l7.22835,4.17928z" fill="#000000" stroke-linecap="round"/><path d="M242.58948,160.66573l-1.37375,-0.01097" fill="none" stroke-linecap="round"/><path d="M240.41504,162.611l1.96094,0.21193" fill="none" stroke-linecap="round"/><path d="M240.98654,164.77447l-1.17594,-0.20566" fill="none" stroke-linecap="round"/><path d="M253.11425,169.47753c0,0 -10.31832,-0.40962 -15.63279,0.01333c-1.30759,0.10407 -0.18853,1.63396 -1.0031,1.63645c-7.21715,0.02215 -7.95084,-1.67552 -8.61159,-2.49999c-1.64114,-2.04775 -3.43081,-4.78063 -3.33855,-5.26243c0.11864,-0.61954 1.56075,-2.0644 1.56075,-2.0644l3.2322,1.29424l4.50121,1.60607l4.70218,1.01889l8.24095,0.26211l6.64429,3.58582" fill="#373737" stroke-linecap="round"/><path d="M252.82308,171.38696l-0.80068,1.95623l-10.20503,-0.08153l-2.15562,-0.40975l-0.76932,-1.96878l0.40505,-1.56687l0.99066,-1.16967l1.17437,0.40191l0.97185,1.18534l0.77716,0.98752z" fill="#000000" stroke-linecap="round"/><path d="M233.65001,174.13648l0.2135,-2.15719" fill="none" stroke-linecap="round"/><path d="M237.5907,172.20532l-7.06031,-0.6452" fill="none" stroke-linecap="round"/><path d="M233.22433,153.72171l-0.99536,1.75842l0.37838,1.7694l-2.93121,-1.59353l0.22605,-3.7272l2.7726,-3.11806l1.16496,1.57942l0.1743,2.74908z" fill="#151515" stroke-linecap="round"/><path d="M233.78877,156.76991l-2.75065,0.37055l-1.3518,-2.75849l0.79441,-1.17123l1.97661,-1.75057l1.57158,-0.18371l0.97498,0.79284l0.97341,0.98909l0.37525,2.16189z" fill="none" stroke-linecap="round"/></g><g fill="#54ff00" stroke="none" stroke-linecap="butt"><path d="M251.12103,156.04662c2.11725,0.64119 2.60476,1.88935 2.25376,3.38167c-0.351,1.49231 -1.92913,2.39782 -3.52485,2.02249c-1.59572,-0.37533 -2.60476,-1.88935 -2.25376,-3.38167c0.351,-1.49231 1.34397,-2.68294 3.52485,-2.02249z"/><path d="M243.17181,157.72087c-0.82191,0.08468 -0.90659,-0.73722 -0.90659,-0.73722l-0.01946,-1.14192c0.51051,-1.24454 0.96992,-2.19899 1.97822,-3.10424c0,0 0.62191,-0.54398 1.16589,0.07794c0.54398,0.62191 -0.07794,1.16589 -0.07794,1.16589c-0.82959,0.7 -1.13225,1.49555 -1.53682,2.48638l0.1339,0.34661c0,0 0.08468,0.82191 -0.73722,0.90659z"/></g></g></g></g></g></svg>