<svg version="1.1" xmlns="http://www.w3.org/2000/svg" xmlns:xlink="http://www.w3.org/1999/xlink" width="180" height="180" viewBox="0,0,180,180"><g transform="translate(-150,-90)"><g data-paper-data="{&quot;isPaintingLayer&quot;:true}" fill-rule="nonzero" stroke="none" stroke-linecap="butt" stroke-linejoin="miter" stroke-miterlimit="10" stroke-dasharray="" stroke-dashoffset="0" style="mix-blend-mode: normal"><path d="M150,251.7c0,-35.47639 0,-112.1295 0,-135c0,-14.67304 7.32696,-26.7 22,-26.7c21.40417,0 99.14464,0 137,0c11.89416,0 21,5.80583 21,17.7c0,20.81563 0,106.83446 0,144.5c0,10.84277 -6.65723,17.8 -17.5,17.8c-20.18231,0 -102.31251,0 -141.5,0c-19.28565,0 -21,-18.3 -21,-18.3z" fill="#e80000" stroke-width="NaN"/><g stroke-width="0"><path d="M156.08602,211.66881v-18.49861h167.82796v18.49861z" fill="#c6cecd"/><path d="M156.08602,193.4383l15.01336,-61.93013l137.53314,-0.2681l15.28146,62.19822z" fill="#dce2e1"/><path d="M166.40331,228.3972l-10.31729,-18.13589l167.82796,0.36272l-12.72466,18.13589z" fill="#4a4b45"/><path d="M185.84465,220.3082v-2.48572h13.40479v2.48572z" fill="#191919"/><path d="M205.41564,220.3082v-2.4857h13.40479v2.4857z" fill="#191919"/><path d="M274.85245,194.77878l-1.34048,-14.20908h26.80958l2.68096,14.20908z" fill="#292d2b"/><path d="M179.41035,181.91018v-1.60857h94.63781v1.60857z" fill="#c4c6c6"/><path d="M272.97578,179.04826v-2.94906h26.00529v2.94906z" fill="#8c8d8d"/><path d="M272.1715,175.02682v-2.68096h26.80958v2.68096z" fill="#8c8d8d"/><path d="M271.09911,170.73729v-2.68096h26.80958v2.68096z" fill="#8c8d8d"/><path d="M271.36721,166.71585v-2.68096h26.54148v2.68096z" fill="#8c8d8d"/><path d="M271.09911,162.42632v-2.14477h25.201v2.14477z" fill="#8c8d8d"/><path d="M270.02673,159.20917v-2.68096h26.54148v2.68096z" fill="#8c8d8d"/><path d="M270.02673,154.91964v-2.68096h25.201v2.68096z" fill="#8c8d8d"/><path d="M269.22244,150.63011v-1.60857h25.201v1.60857z" fill="#8c8d8d"/><path d="M268.95434,146.34057v-1.34048h24.66481v1.34048z" fill="#8c8d8d"/><path d="M268.41815,143.65962l-1.34048,-10.99193l23.32433,-0.2681l2.68096,10.72383z" fill="#8c8d8d"/><path d="M176.53789,193.5666l2.87246,-13.0218h1.03409l-1.72347,13.21329z" fill="#c4c6c6"/><path d="M176.42299,207.35439l0.1915,-14.17078l2.10646,-0.1915l0.76599,14.36227z" fill="#c4c6c6"/><path d="M177.18899,207.73738v-3.25545h96.51448v3.25545z" fill="#c4c6c6"/><path d="M270.83101,225.3417l4.02144,-30.56292h28.15006l-4.82573,30.56292z" fill="#1a1a1a"/></g></g></g></svg>