<svg version="1.1" xmlns="http://www.w3.org/2000/svg" xmlns:xlink="http://www.w3.org/1999/xlink" width="599.39342" height="371.77213" viewBox="0,0,599.39342,371.77213"><g transform="translate(59.6967,5.88605)"><g data-paper-data="{&quot;isPaintingLayer&quot;:true}" fill-rule="nonzero" stroke="none" stroke-width="0" stroke-linecap="butt" stroke-linejoin="miter" stroke-miterlimit="10" stroke-dasharray="" stroke-dashoffset="0" style="mix-blend-mode: normal"><path d="M-59.69668,365.88608v-371.77213h599.3934v371.77213z" fill="#ff0000"/><path d="M-59.69668,100.9099v-53.39797h599.3934v53.39798z" fill="#ff0000"/><path d="M-59.69668,207.70585v-53.39797h599.3934v53.39798z" fill="#ff0000"/><path d="M-59.69668,261.10383v-53.39797h599.3934v53.39798z" fill="#e80000"/><path d="M-59.69668,154.30788v-53.39797h599.3934v53.39797z" fill="#e80000"/><path d="M-59.69668,47.51193v-53.39798h599.3934v53.39798z" fill="#e80000"/><path d="M-59.69668,314.50181v-53.39798h599.3934v53.39798z" fill="#ff0000"/><path d="M-59.6967,365.88608v-53.39797h599.3934v53.39797z" fill="#e80000"/><g><path d="M58.85167,247.83553v-39.93366h362.2967v39.93366z" fill="#c6cecd"/><path d="M58.85167,208.48062l32.40993,-133.69095l296.89809,-0.57875l32.98868,134.2697z" fill="#dce2e1"/><path d="M81.124,283.94774l-22.27233,-39.15064l362.2967,0.78302l-27.46921,39.15064z" fill="#4a4b45"/><path d="M123.09278,266.48571v-5.36601h28.93744v5.36601z" fill="#191919"/><path d="M165.34143,266.48571v-5.36598h28.93744v5.36598z" fill="#191919"/><path d="M315.23735,211.37436l-2.89374,-30.67368h57.87487l5.78749,30.67368z" fill="#292d2b"/><path d="M109.20281,183.59442v-3.47249h204.2983v3.47249z" fill="#c4c6c6"/><path d="M311.18611,177.41628v-6.36624h56.13863v6.36624z" fill="#8c8d8d"/><path d="M309.44987,168.73505v-5.78749h57.87487v5.78749z" fill="#8c8d8d"/><path d="M307.13487,159.47507v-5.78749h57.87487v5.78749z" fill="#8c8d8d"/><path d="M307.71362,150.79384v-5.78749h57.29612v5.78749z" fill="#8c8d8d"/><path d="M307.13487,141.53386v-4.62999h54.40238v4.62999z" fill="#8c8d8d"/><path d="M304.81988,134.58888v-5.78749h57.29612v5.78749z" fill="#8c8d8d"/><path d="M304.81988,125.3289v-5.78749h54.40238v5.78749z" fill="#8c8d8d"/><path d="M303.08363,116.06892v-3.47249h54.40238v3.47249z" fill="#8c8d8d"/><path d="M302.50488,106.80894v-2.89374h53.24488v2.89374z" fill="#8c8d8d"/><path d="M301.34738,101.02145l-2.89374,-23.7287l50.35114,-0.57875l5.78749,23.14995z" fill="#8c8d8d"/><path d="M103.00192,208.75758l6.20089,-28.11066h2.23232l-3.72052,28.52404z" fill="#c4c6c6"/><path d="M102.75388,238.52182l0.4134,-30.59101l4.54729,-0.41339l1.65357,31.00439z" fill="#c4c6c6"/><path d="M104.40747,239.34859v-7.02766h208.34954v7.02766z" fill="#c4c6c6"/><path d="M306.55612,277.35172l8.68123,-65.97735h60.76862l-10.41748,65.97735z" fill="#1a1a1a"/></g></g></g></svg>