<svg version="1.1" xmlns="http://www.w3.org/2000/svg" xmlns:xlink="http://www.w3.org/1999/xlink" width="180" height="180" viewBox="0,0,180,180"><g transform="translate(-150,-90)"><g data-paper-data="{&quot;isPaintingLayer&quot;:true}" fill-rule="nonzero" stroke-linejoin="miter" stroke-miterlimit="10" stroke-dasharray="" stroke-dashoffset="0" style="mix-blend-mode: normal"><path d="M150,251.7c0,-35.47639 0,-112.1295 0,-135c0,-14.67304 7.32696,-26.7 22,-26.7c21.40417,0 99.14464,0 137,0c11.89416,0 21,5.80583 21,17.7c0,20.81563 0,106.83446 0,144.5c0,10.84277 -6.65723,17.8 -17.5,17.8c-20.18231,0 -102.31251,0 -141.5,0c-19.28565,0 -21,-18.3 -21,-18.3z" fill="#929292" stroke="none" stroke-width="NaN" stroke-linecap="butt"/><g stroke-width="7.5"><path d="M198.68821,257.43458c-14.33098,-9.25746 -20.54437,-28.16755 -13.878,-42.23693c6.6664,-14.06938 23.68815,-17.97022 38.01913,-8.7128c14.33098,9.25746 20.54437,28.16755 13.878,42.23693c-6.6664,14.06938 -23.68815,17.97022 -38.01913,8.7128z" fill="none" stroke="#b90000" stroke-linecap="butt"/><g><g stroke="#000000"><path d="M194.21688,217.8915c0,0 1.44866,-5.58971 0.07842,-9.81268c-1.22565,-3.77711 -7.91451,-14.33709 -7.91451,-14.33709c0,0 -18.03437,-12.7793 -16.71486,-25.36025c0.14978,-1.42812 5.83988,-32.51027 24.00728,-49.97625c12.98526,-12.48391 39.2912,-13.59263 42.67606,-12.19324c2.61644,1.08172 19.12101,2.8834 34.36156,9.81402c21.47824,9.76719 41.34323,24.43747 41.34323,24.43747l-7.94521,51.08086l-78.44896,-1.05724l2.45525,27.67522z" fill="#949494" stroke-linecap="butt"/><path d="M308.80672,167.95644l-48.98484,-10.20465l-12.38903,-12.58862l-12.18949,-37.56626l41.81987,13.71586l32.85652,18.99697z" fill="#000000" stroke-linecap="round"/><path d="M250.05915,151.42895l-6.24442,-0.04988" fill="none" stroke-linecap="round"/><path d="M240.17519,160.27122l8.91348,0.96335" fill="none" stroke-linecap="round"/><path d="M242.77297,170.10528l-5.34525,-0.93484" fill="none" stroke-linecap="round"/><path d="M297.89959,191.48309c0,0 -46.90203,-1.86194 -71.059,0.06059c-5.94366,0.47303 -0.85698,7.42717 -4.55959,7.43852c-32.80563,0.10068 -36.14062,-7.61608 -39.14409,-11.36372c-7.4598,-9.30808 -15.59479,-21.7304 -15.17541,-23.92045c0.53929,-2.81613 7.09442,-9.38376 7.09442,-9.38376l14.69198,5.88295l20.46032,7.30041l21.37379,4.63136l37.45934,1.19144l30.2017,16.29941" fill="#373737" stroke-linecap="round"/><path d="M296.57606,200.16243l-3.6395,8.89205l-46.38708,-0.37062l-9.79839,-1.86251l-3.49694,-8.94912l1.84114,-7.12221l4.50306,-5.31675l5.33812,1.82687l4.41755,5.38799l3.53258,4.48879z" fill="#000000" stroke-linecap="round"/><path d="M209.42467,212.66039l0.97048,-9.80554" fill="none" stroke-linecap="round"/><path d="M227.33712,203.8823l-32.09271,-2.93278" fill="none" stroke-linecap="round"/><path d="M207.48975,119.86487l-4.52443,7.99291l1.71995,8.04282l-13.32384,-7.2434l1.02749,-16.94201l12.60289,-14.17316l5.29534,7.17926l0.79228,12.49595z" fill="#151515" stroke-linecap="round"/><path d="M210.05541,133.72048l-12.50309,1.68434l-6.14461,-12.53875l3.611,-5.32385l8.98472,-7.95725l7.14362,-0.83505l4.43178,3.60386l4.42465,4.49593l1.70571,9.82689z" fill="none" stroke-linecap="round"/></g><g fill="#54ff00" stroke="none" stroke-linecap="butt"><path d="M288.83937,130.43276c9.62399,2.91453 11.83998,8.58807 10.24451,15.37139c-1.59548,6.78333 -8.76888,10.89932 -16.02227,9.19323c-7.25335,-1.70604 -11.83998,-8.58807 -10.24451,-15.37139c1.59548,-6.78333 6.10903,-12.19535 16.02227,-9.19323z"/><path d="M252.70613,138.04307c-3.73599,0.38493 -4.12092,-3.35106 -4.12092,-3.35106l-0.08845,-5.19063c2.32052,-5.65708 4.40879,-9.99554 8.992,-14.11036c0,0 2.82691,-2.47267 5.29957,0.35428c2.47267,2.82691 -0.35428,5.29957 -0.35428,5.29957c-3.77092,3.18186 -5.14665,6.79805 -6.98565,11.30185l0.60865,1.5755c0,0 0.38493,3.73599 -3.35106,4.12092z"/></g></g></g></g></g></svg>