<svg version="1.1" xmlns="http://www.w3.org/2000/svg" xmlns:xlink="http://www.w3.org/1999/xlink" width="599.3934" height="371.77213" viewBox="0,0,599.3934,371.77213"><g transform="translate(59.6967,5.88607)"><g data-paper-data="{&quot;isPaintingLayer&quot;:true}" fill-rule="nonzero" stroke-linejoin="miter" stroke-miterlimit="10" stroke-dasharray="" stroke-dashoffset="0" style="mix-blend-mode: normal"><path d="M-59.6967,365.88607v-371.77213h599.3934v371.77213z" fill="#929292" stroke="none" stroke-width="0" stroke-linecap="butt"/><g stroke-width="5"><g><path d="M181.12352,224.80213h117.75297v33.79947h-117.75297z" fill="#c7c7c7" stroke="#525252" stroke-linecap="butt"/><path d="M283.06705,232.97942c4.51619,0 8.17729,3.6611 8.17729,8.17729c0,4.51619 -3.6611,8.17729 -8.17729,8.17729c-4.51619,0 -8.17729,-3.6611 -8.17729,-8.17729c0,-4.51619 3.6611,-8.17729 8.17729,-8.17729z" fill="#525252" stroke="none" stroke-linecap="butt"/><path d="M263.98671,241.15671h-70.86984" fill="none" stroke="#525252" stroke-linecap="round"/></g><g><path d="M181.12352,258.6016h117.75297v33.79947h-117.75297z" fill="#c7c7c7" stroke="#525252" stroke-linecap="butt"/><path d="M283.06705,266.77888c4.51619,0 8.17729,3.6611 8.17729,8.17729c0,4.51619 -3.6611,8.17729 -8.17729,8.17729c-4.51619,0 -8.17729,-3.6611 -8.17729,-8.17729c0,-4.51619 3.6611,-8.17729 8.17729,-8.17729z" fill="#525252" stroke="none" stroke-linecap="butt"/><path d="M263.98671,274.95618h-70.86985" fill="none" stroke="#525252" stroke-linecap="round"/></g><g><path d="M181.12352,292.40107h117.75297v33.79947h-117.75297z" fill="#c7c7c7" stroke="#525252" stroke-linecap="butt"/><path d="M283.06705,300.57836c4.51619,0 8.17729,3.6611 8.17729,8.17729c0,4.51619 -3.6611,8.17729 -8.17729,8.17729c-4.51619,0 -8.17729,-3.6611 -8.17729,-8.17729c0,-4.51619 3.6611,-8.17729 8.17729,-8.17729z" fill="#525252" stroke="none" stroke-linecap="butt"/><path d="M263.98671,308.75564h-70.86985" fill="none" stroke="#525252" stroke-linecap="round"/></g><g><path d="M181.12352,326.20053h117.75297v33.79947h-117.75297z" fill="#c7c7c7" stroke="#525252" stroke-linecap="butt"/><path d="M283.06705,334.37782c4.51619,0 8.17729,3.6611 8.17729,8.17729c0,4.51619 -3.6611,8.17729 -8.17729,8.17729c-4.51619,0 -8.17729,-3.6611 -8.17729,-8.17729c0,-4.51619 3.6611,-8.17729 8.17729,-8.17729z" fill="#525252" stroke="none" stroke-linecap="butt"/><path d="M263.98671,342.55511h-70.86985" fill="none" stroke="#525252" stroke-linecap="round"/></g></g><g stroke-width="7.5"><path d="M66.29337,185.1871c-14.33098,-9.25746 -20.54437,-28.16755 -13.878,-42.23693c6.6664,-14.06938 23.68815,-17.97022 38.01913,-8.7128c14.33098,9.25746 20.54437,28.16755 13.878,42.23693c-6.6664,14.06938 -23.68815,17.97022 -38.01913,8.7128z" fill="none" stroke="#b90000" stroke-linecap="butt"/><g><g stroke="#000000"><path d="M61.82204,145.64402c0,0 1.44866,-5.58971 0.07842,-9.81268c-1.22565,-3.77711 -7.91451,-14.33709 -7.91451,-14.33709c0,0 -18.03437,-12.7793 -16.71486,-25.36025c0.14978,-1.42812 5.83988,-32.51027 24.00728,-49.97625c12.98526,-12.48391 39.2912,-13.59263 42.67606,-12.19324c2.61644,1.08172 19.12101,2.8834 34.36156,9.81402c21.47824,9.76719 41.34323,24.43747 41.34323,24.43747l-7.94521,51.08086l-78.44896,-1.05724l2.45525,27.67522z" fill="#949494" stroke-linecap="butt"/><path d="M176.41188,95.70896l-48.98484,-10.20465l-12.38903,-12.58862l-12.18949,-37.56626l41.81987,13.71586l32.85652,18.99697z" fill="#000000" stroke-linecap="round"/><path d="M117.66431,79.18147l-6.24442,-0.04988" fill="none" stroke-linecap="round"/><path d="M107.78035,88.02374l8.91348,0.96335" fill="none" stroke-linecap="round"/><path d="M110.37813,97.8578l-5.34525,-0.93484" fill="none" stroke-linecap="round"/><path d="M165.50475,119.23561c0,0 -46.90203,-1.86194 -71.059,0.06059c-5.94366,0.47303 -0.85698,7.42717 -4.55959,7.43852c-32.80563,0.10068 -36.14062,-7.61608 -39.14409,-11.36372c-7.4598,-9.30808 -15.59479,-21.7304 -15.17541,-23.92045c0.53929,-2.81613 7.09442,-9.38376 7.09442,-9.38376l14.69198,5.88295l20.46032,7.30041l21.37379,4.63136l37.45934,1.19144l30.2017,16.29941" fill="#373737" stroke-linecap="round"/><path d="M164.18122,127.91495l-3.6395,8.89205l-46.38708,-0.37062l-9.79839,-1.86251l-3.49694,-8.94912l1.84114,-7.12221l4.50306,-5.31675l5.33812,1.82687l4.41755,5.38799l3.53258,4.48879z" fill="#000000" stroke-linecap="round"/><path d="M77.02983,140.41291l0.97048,-9.80554" fill="none" stroke-linecap="round"/><path d="M94.94228,131.63482l-32.09271,-2.93278" fill="none" stroke-linecap="round"/><path d="M75.09491,47.61739l-4.52443,7.99291l1.71995,8.04282l-13.32384,-7.2434l1.02749,-16.94201l12.60289,-14.17316l5.29534,7.17926l0.79228,12.49595z" fill="#151515" stroke-linecap="round"/><path d="M77.66057,61.473l-12.50309,1.68434l-6.14461,-12.53875l3.611,-5.32385l8.98472,-7.95725l7.14362,-0.83505l4.43178,3.60386l4.42465,4.49593l1.70571,9.82689z" fill="none" stroke-linecap="round"/></g><g fill="#54ff00" stroke="none" stroke-linecap="butt"><path d="M156.44453,58.18528c9.62399,2.91453 11.83998,8.58807 10.24451,15.37139c-1.59548,6.78333 -8.76888,10.89932 -16.02227,9.19323c-7.25335,-1.70604 -11.83998,-8.58807 -10.24451,-15.37139c1.59548,-6.78333 6.10903,-12.19535 16.02227,-9.19323z"/><path d="M120.31129,65.79559c-3.73599,0.38493 -4.12092,-3.35106 -4.12092,-3.35106l-0.08845,-5.19063c2.32052,-5.65708 4.40879,-9.99554 8.992,-14.11036c0,0 2.82691,-2.47267 5.29957,0.35428c2.47267,2.82691 -0.35428,5.29957 -0.35428,5.29957c-3.77092,3.18186 -5.14665,6.79805 -6.98565,11.30185l0.60865,1.5755c0,0 0.38493,3.73599 -3.35106,4.12092z"/></g></g></g><g data-paper-data="{&quot;index&quot;:null}" stroke-width="7.5"><path d="M393.67557,169.26681c-6.66636,-14.06939 -0.45297,-32.97947 13.878,-42.23694c14.33098,-9.25743 31.35274,-5.35658 38.01914,8.7128c6.66637,14.06939 0.45298,32.97947 -13.878,42.23693c-14.33098,9.25743 -31.35274,5.35659 -38.01914,-8.7128z" fill="none" stroke="#b90000" stroke-linecap="butt"/><g><g stroke="#000000"><path d="M402.26778,138.70735l2.45525,-27.67522l-78.44896,1.05724l-7.9452,-51.08086c0,0 19.86498,-14.67027 41.34322,-24.43746c15.24054,-6.93062 31.74512,-8.73231 34.36156,-9.81403c3.38486,-1.39939 29.6908,-0.29067 42.67606,12.19324c18.1674,17.46597 23.85749,48.54813 24.00727,49.97625c1.31951,12.58095 -16.71486,25.36025 -16.71486,25.36025c0,0 -6.68887,10.55998 -7.91451,14.33709c-1.37025,4.22297 0.07842,9.81268 0.07842,9.81268z" fill="#949494" stroke-linecap="butt"/><path d="M320.46316,60.85477l32.85652,-18.99697l41.81987,-13.71586l-12.1895,37.56626l-12.38903,12.58863l-48.98485,10.20465z" fill="#000000" stroke-linecap="round"/><path d="M380.32376,71.97398l6.24442,-0.04988" fill="none" stroke-linecap="round"/><path d="M381.29424,81.77959l8.91347,-0.96335" fill="none" stroke-linecap="round"/><path d="M387.60994,90.65031l5.34525,-0.93484" fill="none" stroke-linecap="round"/><path d="M331.13988,110.16487l30.20169,-16.29941l37.45934,-1.19144l21.37379,-4.63135l20.46032,-7.30042l14.69198,-5.88295c0,0 6.55512,6.56763 7.09441,9.38376c0.41938,2.19004 -7.71561,14.61236 -15.17541,23.92045c-3.00347,3.74764 -6.33847,11.4644 -39.14409,11.36372c-3.70261,-0.01135 1.38406,-6.96548 -4.5596,-7.43852c-24.15697,-1.92252 -71.059,-0.06059 -71.059,-0.06059" fill="#373737" stroke-linecap="round"/><path d="M377.49632,117.68196l3.53258,-4.48879l4.41755,-5.38799l5.33812,-1.82687l4.50306,5.31674l1.84114,7.12221l-3.49694,8.94912l-9.79839,1.86251l-46.38708,0.37062l-3.6395,-8.89205z" fill="#000000" stroke-linecap="round"/><path d="M420.95824,133.20542l-0.97048,-9.80554" fill="none" stroke-linecap="round"/><path d="M435.1385,121.49456l-32.09272,2.93277" fill="none" stroke-linecap="round"/><path d="M419.30348,37.76226l0.79228,-12.49595l5.29534,-7.17926l12.60289,14.17316l1.02749,16.94201l-13.32384,7.2434l1.71995,-8.04282l-4.52444,-7.9929z" fill="#151515" stroke-linecap="round"/><path d="M408.67371,47.22164l1.70571,-9.82689l4.42465,-4.49592l4.43178,-3.60386l7.14361,0.83505l8.98473,7.95725l3.611,5.32385l-6.14462,12.53875l-12.50309,-1.68435z" fill="none" stroke-linecap="round"/></g><g fill="#54ff00" stroke="none" stroke-linecap="butt"><path d="M357.5658,60.17102c1.59548,6.78333 -2.99115,13.66535 -10.24451,15.37139c-7.25339,1.7061 -14.42679,-2.4099 -16.02227,-9.19322c-1.59547,-6.78333 0.62053,-12.45686 10.24451,-15.37139c9.91324,-3.00212 14.42679,2.4099 16.02227,9.19323z"/><path d="M377.67692,58.58818c-3.73599,-0.38492 -3.35107,-4.12092 -3.35107,-4.12092l0.60865,-1.5755c-1.839,-4.50381 -3.21472,-8.11999 -6.98565,-11.30185c0,0 -2.82694,-2.47266 -0.35428,-5.29957c2.47267,-2.82695 5.29958,-0.35428 5.29958,-0.35428c4.5832,4.11482 6.67148,8.45328 8.99199,14.11037l-0.08845,5.19063c0,0 -0.38493,3.73599 -4.12092,3.35107z"/></g></g></g><path d="M181.12352,217.29463l-46.22891,-9.66989l17.40693,-15.03326l-31.06952,-35.97523l9.84779,-8.50491l31.28739,36.2275l15.64101,-13.50815z" fill="#525252" stroke="none" stroke-width="0" stroke-linecap="butt"/><path d="M303.49329,172.33219l15.64101,13.50815l31.28739,-36.22751l9.84779,8.50492l-31.06952,35.97522l17.40693,15.03326l-46.22891,9.66989z" data-paper-data="{&quot;index&quot;:null}" fill="#525252" stroke="none" stroke-width="0" stroke-linecap="butt"/></g></g></svg>