<svg version="1.1" xmlns="http://www.w3.org/2000/svg" xmlns:xlink="http://www.w3.org/1999/xlink" width="599.3934" height="371.77213" viewBox="0,0,599.3934,371.77213"><defs><linearGradient x1="240.00001" y1="-5.88607" x2="240.00001" y2="365.88606" gradientUnits="userSpaceOnUse" id="color-1"><stop offset="0" stop-color="#f16529"/><stop offset="1" stop-color="#e44d26"/></linearGradient></defs><g transform="translate(59.69669,5.88607)"><g data-paper-data="{&quot;isPaintingLayer&quot;:true}" fill-rule="nonzero" stroke="none" stroke-linecap="butt" stroke-linejoin="miter" stroke-miterlimit="10" stroke-dasharray="" stroke-dashoffset="0" style="mix-blend-mode: normal"><path d="M-59.69669,365.88606v-371.77213h599.3934v371.77213z" fill="url(#color-1)" stroke-width="0"/><g stroke-width="1"><path d="M141.745,9.58479h15.31074v15.17761h14.11251v-15.17761h15.31074v45.93222h-15.31074v-15.31074h-13.97937v15.31074h-15.44388M206.71579,24.89553h-13.51339v-15.31074h42.40409v15.31074h-13.57996v30.62148h-15.31074M242.32991,9.58479h16.04299l9.85213,16.17613l9.85213,-16.17613h16.04299v45.93222h-15.31074v-22.76641l-10.71752,16.50898l-10.71752,-16.50898v22.76641h-15.04447M301.70896,9.58479h15.31074v30.75462h21.70131v15.17761h-37.01205" fill="#000000"/><path d="M141.21245,323.12214l-21.96758,-246.5695h241.5103l-21.96758,246.43636l-98.98727,27.42619" fill="#e44d26"/><path d="M240.00001,329.44614v-232.65669h98.721l-18.83886,210.35627" fill="#f16529"/><path d="M164.11199,126.94494h75.88802v30.22207h-42.73694l2.79587,30.95432h39.94107v30.15551h-67.63354M173.69785,233.45444h30.35521l2.13019,24.16434l33.81676,9.05331v31.55344l-62.04179,-17.3078" fill="#ebebeb"/><path d="M312.82589,157.16702h-72.95901v-30.22207h75.75488M301.77552,280.91775l-61.90865,17.17466v-31.42031l33.75019,-9.05331l3.52813,-39.27538h-37.27833v-30.22207h70.2297" fill="#ffffff"/></g></g></g></svg>