<svg version="1.1" xmlns="http://www.w3.org/2000/svg" xmlns:xlink="http://www.w3.org/1999/xlink" width="180" height="180" viewBox="0,0,180,180"><g transform="translate(-150,-90)"><g data-paper-data="{&quot;isPaintingLayer&quot;:true}" fill-rule="nonzero" stroke="none" stroke-width="1" stroke-linecap="butt" stroke-linejoin="miter" stroke-miterlimit="10" stroke-dasharray="" stroke-dashoffset="0" style="mix-blend-mode: normal"><path d="M150,270v-180h180v180z" fill="none"/><g><path d="M193.17873,98.79238h7.296v7.23255h6.72501v-7.23255h7.296v21.88799h-7.296v-7.296h-6.66156v7.296h-7.35944M224.13913,106.08838h-6.43951v-7.29599h20.20674v7.29599h-6.47123v14.592h-7.296M241.11026,98.79238h7.64494l4.69481,7.70838l4.69482,-7.70838h7.64494v21.88799h-7.296v-10.84884l-5.1072,7.867l-5.1072,-7.867v10.84884h-7.16911M269.40604,98.79238h7.296v14.65544h10.34128v7.23255h-17.63728" fill="#000000"/><path d="M192.92495,248.20171l-10.46816,-117.49727h115.08643l-10.46817,117.43383l-47.17021,13.06935" fill="#e44d26"/><path d="M240,251.21528v-110.86743h47.04332l-8.97725,100.24066" fill="#f16529"/><path d="M203.83723,154.71778h36.16277v14.40167h-20.36535l1.33231,14.7506h19.03304v14.36995h-32.22928M208.40516,205.47254h14.46511l1.0151,11.51498l16.11463,4.31415v15.0361l-29.56465,-8.24765" fill="#ebebeb"/><path d="M274.70357,169.11945h-34.76701v-14.40166h36.09932M269.43776,228.09014l-29.5012,8.18421v-14.97266l16.08291,-4.31415l1.68125,-18.71582h-17.76417v-14.40166h33.46642" fill="#ffffff"/></g></g></g></svg>