<svg version="1.1" xmlns="http://www.w3.org/2000/svg" xmlns:xlink="http://www.w3.org/1999/xlink" width="231.3399" height="197.47041" viewBox="0,0,231.3399,197.47041"><g transform="translate(-126.95279,-63.05276)"><g data-paper-data="{&quot;isPaintingLayer&quot;:true}" fill-rule="nonzero" stroke-linecap="butt" stroke-linejoin="miter" stroke-miterlimit="10" stroke-dasharray="" stroke-dashoffset="0" style="mix-blend-mode: normal"><g><path d="M221.98263,142.17261c-1.33138,1.13933 -3.08992,2.3366 -5.32979,3.30572c0.10434,2.47998 0.22525,5.32109 0.37956,8.5091c0.48546,1.66743 0.99401,3.61833 1.51521,5.97695c0.21284,1.00325 0.34672,2.0155 0.3848,3.05098c0.29489,7.46971 -3.30702,14.40852 -9.64308,18.52117c-4.51669,2.93613 -9.77386,4.2616 -15.20966,3.80467c-4.14674,-0.34858 -7.89538,-1.71161 -10.99367,-3.92712c-4.73943,1.30643 -9.78241,1.75839 -15.07843,1.3132c-7.67224,-0.64493 -15.03381,-3.12497 -21.83883,-7.38818c-6.20742,-3.74376 -11.04664,-9.43706 -14.40777,-16.89863c-3.9788,-8.85858 -5.4986,-19.24656 -4.52076,-30.87916c0.2846,-3.38572 0.72164,-6.35198 1.35521,-9.05147c0.42069,-1.84151 0.98561,-4.46856 1.72583,-7.87855c0.31039,-1.45976 0.82008,-2.87149 1.49408,-4.19121c0.85114,-2.86888 2.07165,-6.41054 3.70433,-10.76215c0.22306,-0.60687 0.49141,-1.1943 0.77529,-1.78042c6.38744,-12.5386 14.76925,-21.2653 24.92004,-25.91751c7.74387,-3.55637 15.85899,-5.01697 24.10587,-4.32374c3.24595,0.27285 6.37129,0.86402 9.37473,1.78904c3.33801,-1.75268 7.50123,-2.71653 12.53322,-2.29354c2.82661,0.23761 5.48068,1.03941 7.91821,2.37043c6.28927,3.32834 10.31017,9.45336 10.79431,16.53232c0.01278,0.22004 0.02557,0.44009 0.03835,0.66013c0.11893,3.79502 -0.49016,8.436 -1.96002,14.94405c-0.31801,3.03882 -1.13313,6.22355 -2.4895,9.70686c-0.25934,0.66639 -0.56398,1.31332 -0.91389,1.94081c0.97412,0.69187 1.87698,1.48723 2.70857,2.38608c4.25625,4.62766 6.32549,10.52606 5.81503,16.59862c-0.45693,5.4358 -2.99865,10.36789 -7.15723,13.88155z" fill="#f8a839" stroke="none" stroke-width="1"/><path d="M210.9056,129.09656c-0.98829,0.83503 -2.44053,1.21658 -4.36151,1.14582c1.2811,0.01697 -0.2582,-0.20314 -4.6223,-0.66383c-0.48784,2.52874 -1.37186,5.93759 -2.6496,10.23457c0.12593,3.95358 0.37559,9.70997 0.74977,17.25985c0.52201,1.41869 1.11697,3.62554 1.78371,6.61576c0.05757,1.47349 -0.56726,2.63624 -1.87604,3.48812c-1.31046,0.8533 -2.78572,1.21102 -4.42423,1.07329c-1.54998,-0.13029 -2.64858,-0.68091 -3.30035,-1.6538c-0.01681,-0.91639 -0.1698,-2.35254 -0.46401,-4.30419c-0.69729,-2.6268 -0.97336,-4.25473 -0.82652,-4.88521c0.09008,0.00757 0.01514,-0.18016 -0.22894,-0.56979c-5.69004,6.58655 -12.76843,9.52005 -21.2374,8.80815c-5.01025,-0.42116 -9.77888,-2.06075 -14.30757,-4.91734c-3.23233,-1.92336 -5.81471,-5.02925 -7.74545,-9.3191c-2.7809,-6.19595 -3.80474,-13.66438 -3.06973,-22.40824c0.21424,-2.54861 0.53851,-4.76891 0.9727,-6.65933c0.43418,-1.89042 1.02712,-4.5902 1.7823,-8.10372c0.19543,-0.16657 0.40795,-0.51782 0.63859,-1.04742c0.67699,-2.60199 1.96139,-6.43858 3.8576,-11.50627c4.61365,-9.05753 10.21101,-15.09975 16.79336,-18.12344c5.05676,-2.32767 10.22525,-3.26802 15.50884,-2.82388c6.37386,0.53579 11.93626,3.11484 16.68617,7.73082c0.09765,-0.08251 0.22207,-0.4834 0.37674,-1.20707c-0.08391,-1.1973 0.06165,-2.92899 0.43631,-5.19041c0.48433,-1.42637 1.96055,-2.03739 4.41908,-1.83073c0.45505,0.03825 0.85723,0.1659 1.20694,0.37829c1.14351,0.55596 1.75807,1.43188 1.84185,2.63073c0.07425,2.39143 -0.53213,6.33037 -1.81902,11.81527c-0.04778,1.64763 -0.53681,3.66952 -1.47187,6.06682c-1.0952,1.00903 -2.27957,1.46003 -3.5531,1.35297c-2.00348,-0.16841 -3.38911,-1.15607 -4.15223,-2.96258c0.05353,-0.63676 -0.01421,-1.46828 -0.20322,-2.49455c-1.24256,-2.67107 -2.75924,-4.8162 -4.55005,-6.43539c-2.29938,-2.11864 -5.57766,-3.49531 -9.83511,-4.1269c-7.32207,-1.25676 -13.43082,1.02628 -18.32326,6.85092c-3.47976,4.29488 -6.12032,9.52835 -7.92375,15.7065c-0.34214,0.7955 -0.81456,2.04301 -1.41492,3.73334c-1.47028,5.47105 -2.39153,10.43926 -2.76648,14.89972c-0.52835,6.28533 -0.03184,12.37998 1.49093,18.28561c0.90015,3.46967 3.08232,6.40585 6.55155,8.80426c3.2001,2.2882 6.57616,3.58081 10.12962,3.87951c2.3669,0.19896 4.77739,-0.10204 7.23018,-0.90624c1.69345,-0.49735 4.44586,-3.24708 8.26032,-8.24892c0.82775,-1.12067 1.53436,-2.43764 2.12126,-3.94924c0.72267,-2.0476 1.19564,-3.33886 1.42486,-3.87014c0.8737,-1.66735 1.4462,-3.84489 1.71864,-6.52781c0.26921,-2.68163 0.63857,-4.60096 1.10303,-5.75373c-2.26155,-0.3731 -5.37367,-0.45171 -9.33495,-0.23415c-5.35084,0.37447 -8.0737,0.55849 -8.16222,0.55105c-3.00522,-0.25262 -5.04602,-1.61442 -6.12201,-4.09006c-0.29604,-0.85071 -0.31496,-1.72348 -0.05506,-2.61973c0.45365,-1.0614 1.30906,-1.95295 2.56299,-2.67337c1.9351,-1.21371 5.02727,-1.45584 9.28025,-0.73391c6.41183,1.18181 11.57561,1.93494 15.49249,2.2642c0.54669,0.04595 2.05217,0.12871 4.51854,0.24219c2.19432,0.09374 3.83282,0.23147 4.91862,0.41346c1.37429,0.02481 2.95471,0.2953 4.74735,0.81354c1.00748,1.09507 1.4586,2.27788 1.35155,3.55141c-0.08142,0.91282 -0.46651,1.66092 -1.15524,2.24429z" fill="#ffffff" stroke="#ffffff" stroke-width="5"/></g><g><path d="M358.23402,220.07304c0.09911,1.18035 0.07266,2.35561 -0.07934,3.52577c-0.03462,0.51904 -0.12971,1.62186 -0.26844,3.32268c-0.30057,3.6851 -1.78943,7.18845 -4.2469,9.95982c-3.69912,4.18942 -8.44095,7.13695 -13.86447,8.67152c-0.96387,0.62835 -2.22532,1.43808 -3.86972,2.53022c-1.37918,0.89782 -2.8698,1.58604 -4.4408,2.06203c-0.1514,0.05963 -0.9136,0.29567 -2.77566,1.03072c-2.23054,1.37596 -5.17539,2.99957 -9.09075,4.98621c-0.67412,0.35377 -1.36898,0.64672 -2.08329,0.89438c-1.95916,0.69627 -3.95602,1.12982 -5.92845,1.29543c-6.30557,0.52943 -12.25558,-1.59859 -16.77032,-6.0055c-0.86902,-0.84982 -1.63584,-1.78643 -2.31469,-2.79298c-0.77287,-0.26356 -1.51729,-0.56078 -2.26562,-0.90461c-0.93423,0.42253 -1.90083,0.83214 -2.88817,1.18093c-0.97312,0.33195 -1.96829,0.58755 -2.97128,0.74997c-1.01852,0.16372 -2.55858,0.44943 -4.60464,0.85583c-3.6831,0.84102 -7.63141,1.87635 -11.78281,3.10078c-2.79878,1.31418 -6.44134,2.82434 -11.06223,4.60432c-0.53054,0.20095 -1.07923,0.37214 -1.62921,0.5278c-3.01266,0.81601 -6.2923,1.06009 -9.76519,0.67915c-10.40301,-0.95647 -14.90991,-7.3191 -16.65694,-10.98868c-0.81649,-1.71446 -1.64507,-4.13172 -1.89935,-7.16026c-0.13171,-1.56863 -0.10561,-3.30691 0.15855,-5.1903c1.12588,-8.57166 7.89883,-13.03481 11.29503,-15.24374c1.46585,-0.9833 2.88261,-1.80608 4.27743,-2.51753c-0.03388,-4.50161 -0.29832,-13.42575 -1.21535,-31.05375l-0.13301,-1.58416c-9.34288,-0.81087 -16.90286,-6.83896 -19.5606,-15.95316c-1.2594,-4.19538 -0.98005,-8.69201 0.81517,-12.83106c2.66224,-6.47971 8.29349,-11.12853 15.5665,-12.80274c0.44518,-0.09994 0.9072,-0.18565 1.37052,-0.25584c1.31361,-0.1885 2.70227,-0.41458 4.13622,-0.6601c1.60348,-0.2754 4.21127,-0.69768 7.82204,-1.28238c0.24589,-0.05193 0.50991,-0.07409 0.75711,-0.11049c0.04659,-0.00391 0.09188,-0.02336 0.13847,-0.02727c5.31457,-1.90079 11.15196,-1.85913 16.74724,0.14226c2.25649,0.79589 4.31913,2.07727 6.05326,3.73032c2.05529,1.93889 3.98028,4.56127 6.89936,9.33676c0.16456,0.28335 0.32911,0.5667 0.47813,0.85136c0.44446,0.82291 0.90968,1.70663 1.4267,2.64857c-0.00154,-0.39088 -0.00569,-0.81283 -0.01114,-1.2503c0.00119,-0.17214 0.00107,-0.35982 0.00226,-0.53197c0.25485,-10.56307 7.66863,-18.94322 18.89919,-21.35637c0.93696,-0.20379 1.89597,-0.33124 2.84727,-0.36419c2.04108,-0.09317 5.23915,-0.37733 9.36387,-0.80186l0.34168,-0.02869c1.42885,-0.11997 4.2658,-0.42073 9.66133,-1.17092c5.2375,-0.95589 10.5888,0.00244 15.23965,2.67748c6.16186,3.53351 10.01622,9.57556 10.60303,16.5645c0.62463,7.43934 -2.78405,14.52914 -9.10661,18.95447c-2.71817,1.90175 -5.66965,3.26004 -8.79233,4.06964c0.45038,2.01108 0.98897,4.32757 1.61185,6.90287c1.87469,7.05285 3.44612,13.47426 4.6741,19.15813c8.22583,0.73262 16.63291,5.67295 18.62744,16.01587l0.0013,0.01553c0.12851,0.59919 0.21173,1.21782 0.26259,1.82353z" fill="#f8a839" stroke="none" stroke-width="1"/><path d="M341.1453,221.50786c-0.00756,-0.09008 -0.12503,1.24922 -0.35071,4.01933c-1.92833,2.18109 -4.47692,3.4946 -7.64862,3.9439c-1.39552,0.85227 -3.61567,2.27741 -6.65594,4.27346c-1.2537,0.38054 -3.16638,1.09011 -5.73611,2.13325c-1.64746,1.1487 -4.6258,2.82049 -8.93347,5.01523c-2.05078,0.72273 -3.72372,0.45029 -5.02194,-0.81707c-0.57897,-2.51799 0.64932,-4.82173 3.68474,-6.91278c2.53321,-1.49678 5.0625,-3.04015 7.59125,-4.62726c-2.21779,-15.49804 -5.48447,-30.35591 -9.79567,-44.57709c0.00769,0.09163 -0.07246,0.236 -0.23892,0.43297c-0.30407,9.47393 -0.91549,22.96199 -1.83128,40.46235c-0.07607,1.29203 -0.55064,3.25878 -1.43016,5.89767c-0.34047,0.30386 -0.79547,0.64079 -1.36047,1.00886c-0.56642,0.36975 -1.78588,0.86002 -3.65953,1.47561c-1.79114,0.51794 -3.18626,-0.28302 -4.19133,-2.39924c-1.38249,-3.37018 -3.9638,-8.42585 -7.73952,-15.1705c-2.33993,-3.83877 -5.92007,-9.31576 -10.73432,-16.43304c-1.55789,-2.16209 -3.36257,-5.08391 -5.41235,-8.76405c-2.91899,-5.25879 -4.64325,-8.32188 -5.17485,-9.19534c-0.06095,1.47219 0.03052,4.72242 0.26767,9.74499c0.00004,1.09952 0.12627,2.60292 0.37843,4.50709c0.21425,2.55174 0.35182,4.19026 0.41298,4.91866c0.0536,0.63832 0.04216,1.60117 -0.03249,2.89152c-0.1432,1.57294 -0.19199,2.6312 -0.14621,3.17634c0.03696,1.55782 0.20093,5.67157 0.48557,12.34022c0.25864,4.19808 0.47289,6.74982 0.64236,7.65056c0.07655,0.91167 0.62099,1.4165 1.63955,1.51397c0.27335,-0.02295 0.81247,-0.15893 1.61712,-0.41105c0.80478,-0.25056 1.38348,-0.43679 1.74232,-0.5592c1.53932,-0.21996 3.24612,-0.662 5.11741,-1.32431c1.87,-0.65907 3.12397,-1.01773 3.76229,-1.07133c1.36673,-0.11475 2.64113,0.32879 3.82631,1.33037c0.49201,1.51961 0.61811,3.02145 0.37843,4.50709c-1.25953,1.3914 -2.9134,2.44523 -4.9625,3.16938c-1.17732,0.19113 -2.98385,0.5258 -5.41945,1.00557c-4.50164,1.02079 -9.29952,2.29481 -14.39972,3.82412c-2.46595,1.21742 -6.14291,2.76487 -11.02803,4.63899c-0.98778,0.26906 -2.17515,0.32183 -3.56341,0.16156c-1.66302,-0.13564 -2.61655,-0.55764 -2.85955,-1.27234c-0.3345,-0.70545 -0.41105,-1.61712 -0.22951,-2.73345c0.04418,-0.55425 1.28554,-1.62193 3.72097,-3.20278c1.56379,-1.04627 2.94579,-1.7801 4.14871,-2.20642c1.2019,-0.41998 2.38206,-0.81937 3.54426,-1.19066c0.90255,-0.1665 2.2967,-0.51347 4.1796,-1.03755c0.34661,-0.2121 0.58918,-0.60158 0.72668,-1.1621c-0.19104,-2.27529 -0.39455,-5.23927 -0.60897,-8.89208c0.08037,-5.59978 -0.33648,-17.12151 -1.25042,-34.56366l-0.61928,-7.37566c-0.23866,-3.92292 -0.76073,-7.96125 -1.56761,-12.1133c-0.41088,-0.51605 -0.83981,-0.70682 -1.2873,-0.57853c-2.50584,0.76094 -6.012,1.60431 -10.51654,2.53463c-3.45416,0.3823 -5.57619,-0.86125 -6.36778,-3.73206c-0.12202,-0.35418 -0.06481,-0.77189 0.17175,-1.25158c0.52046,-1.42006 1.72839,-2.34573 3.61872,-2.78129c1.44769,-0.21227 2.96473,-0.45538 4.54674,-0.72585c1.58045,-0.27033 4.13827,-0.69155 7.66725,-1.26312c0.7284,-0.06116 1.85379,-0.29329 3.38083,-0.69677c1.76677,-0.7896 3.6901,-0.81345 5.77157,-0.07169c0.79712,0.75732 2.15272,2.70805 4.06806,5.84893c3.04572,5.70642 7.74785,14.20791 14.10948,25.50421c1.67862,2.5195 3.99938,6.12997 6.96255,10.83451c1.91535,3.14088 4.87528,7.84413 8.88938,14.11206c0.67708,-7.2108 1.9098,-23.13462 3.69325,-47.7742c0.06713,-0.28091 0.07667,-3.44577 0.02863,-9.4946c0.05936,-2.57158 1.84512,-4.23395 5.35871,-4.98879c2.28298,-0.09941 5.74483,-0.39007 10.38245,-0.87174c2.45855,-0.20643 6.13568,-0.6528 11.03139,-1.33913c1.35147,-0.29647 2.65174,-0.08501 3.90548,0.63397c1.25218,0.71912 1.93727,1.76268 2.05202,3.12941c0.11462,1.36517 -0.50023,2.51789 -1.84172,3.45477c-1.34447,0.9387 -2.78468,1.51945 -4.324,1.73941c-1.23247,-0.44706 -2.6655,-0.60045 -4.30557,-0.46275c-3.55193,0.29823 -6.97545,1.04551 -10.26783,2.23691c-0.44879,0.13152 -0.54261,1.19357 -0.28289,3.18782c0.1377,1.64007 0.52051,4.03846 1.15462,7.19464c0.2108,0.34985 0.5393,0.96509 0.97901,1.84314c0.62345,3.06636 1.64411,7.56645 3.05888,13.50052c2.27504,8.52385 4.04279,15.94228 5.30792,22.2549c1.88101,9.2889 2.83286,14.06847 2.85594,14.34337c0.56208,0.13736 1.57667,-0.31537 3.05011,-1.35718c2.17592,-1.3745 3.43881,-2.16715 3.78995,-2.38119c0.87818,-0.43816 2.04767,-0.72247 3.50603,-0.84492c2.73229,-0.22472 4.26018,0.51817 4.58858,2.23138z" fill="#ffffff" stroke="#ffffff" stroke-width="5"/></g></g></g></svg>