<svg version="1.1" xmlns="http://www.w3.org/2000/svg" xmlns:xlink="http://www.w3.org/1999/xlink" width="179.58108" height="179.58108" viewBox="0,0,179.58108,179.58108"><g transform="translate(-150.45946,-90.45946)"><g data-paper-data="{&quot;isPaintingLayer&quot;:true}" fill-rule="nonzero" stroke-linecap="butt" stroke-linejoin="miter" stroke-miterlimit="10" stroke-dasharray="" stroke-dashoffset="0" style="mix-blend-mode: normal"><path d="M150.45946,270.04054v-179.58108h179.58108v179.58108z" fill="#ff2e2e" stroke="none" stroke-width="NaN"/><path d="M288.06033,150.3309c-0.05488,0.23321 -0.09603,0.46642 -0.16461,0.69963c-0.20577,0.86426 -0.63105,2.90828 -1.05631,6.90032c0,0.06858 0,0.12347 -0.01372,0.16461c2.34583,9.43821 -1.60505,15.1862 -4.22525,17.8064c-0.16461,0.17833 -0.34296,0.34296 -0.53502,0.50757c-2.56532,2.33211 -7.05122,5.11693 -13.74576,5.11693c-3.33355,0 -6.44761,-0.74078 -9.16385,-2.09891c0.06858,3.74511 0.10975,8.90319 0.10975,16.06417c2.46929,0.86426 4.73282,2.26353 6.65339,4.10178c3.8137,3.6628 5.89888,8.56023 5.89888,13.78692c0,7.76457 -4.47218,14.51399 -11.67429,17.60062c-0.17833,0.08232 -0.3704,0.16461 -0.54874,0.23321c-2.41443,0.91913 -5.13066,1.37184 -8.3133,1.37184c-1.15234,0 -2.387,-0.05488 -3.73138,-0.17833c-0.8231,-0.04115 -2.0303,-0.02744 -3.45702,0.01372c-2.59277,0.28809 -6.24184,0.57617 -11.12557,0.85053c-0.09603,0 -0.19206,0.01372 -0.30181,0.01372c-0.64477,0.02744 -1.26209,0.04115 -1.86569,0.04115c-8.73858,0 -15.11759,-2.7711 -18.97245,-8.21729c-0.08232,-0.10975 -0.1509,-0.21949 -0.21949,-0.32924c-3.92345,-5.85773 -4.03319,-13.26562 -0.30181,-19.31542c0.02744,-0.06858 0.06858,-0.12347 0.10975,-0.19206c2.37328,-3.73138 5.84401,-6.39275 10.34362,-7.95663c0.05488,-2.64764 0.04115,-5.96747 -0.04115,-9.90463c-2.23608,0.93285 -4.81514,1.48158 -7.7097,1.48158c-7.64112,0 -13.95154,-4.54076 -16.14647,-11.44108c-0.4527,-1.39927 -0.87798,-3.4433 -1.86569,-8.05266c-0.04115,-0.16461 -0.06858,-0.32924 -0.09603,-0.49385l-2.0303,-11.34507c-0.06858,-0.24693 -0.16461,-0.53502 -0.27438,-0.86426c-1.05631,-3.00431 -1.55018,-5.55592 -1.55018,-8.02522c0,-3.05919 0.89169,-7.68227 5.11693,-12.29163c2.12635,-2.33211 5.99491,-5.35016 12.22303,-6.32415c0.76823,-0.12347 1.55018,-0.19206 2.33211,-0.19206h15.17248c0.34296,0 0.68592,0.01372 1.02887,0.04115c5.78915,0.20577 10.97466,0.19206 15.41941,-0.01372c6.2144,-0.27438 12.41509,-0.80938 18.49231,-1.59133c0.68592,-0.21949 1.4267,-0.43899 2.22237,-0.63105c0.7545,-0.19206 1.52273,-0.31552 2.29096,-0.39784c5.84401,-0.53502 11.29019,1.15234 15.52915,4.77399c5.25413,4.51333 7.57252,11.34507 6.18697,18.28654z" fill="#ff5454" stroke="#ffffff" stroke-width="7.5"/><path d="M273.25912,147.37175c-0.56245,2.25392 -1.04533,5.30899 -1.44729,9.17069c-0.16325,1.93155 -0.08368,3.49954 0.24144,4.70675c0.55971,2.01248 0.52267,3.34041 -0.12072,3.98244c-0.8862,0.8039 -2.09205,1.20584 -3.62027,1.20584c-1.77104,0 -2.93983,-0.52541 -3.49954,-1.57897c-0.08368,-3.24027 -0.04253,-6.28025 0.12072,-9.1172c0.15776,-3.48445 0.24144,-5.30763 0.24144,-5.4695c-0.08368,0 -0.20304,-0.08093 -0.36217,-0.24419c-7.48335,0.32512 -14.52222,0.808 -21.118,1.45277c-0.16187,0.808 -0.16187,2.09616 0,3.86857c0.31964,2.49948 0.48288,3.95088 0.48288,4.35145c-0.32101,2.49948 -0.48288,6.20617 -0.48288,11.1242c0.31964,2.09616 0.48288,11.08441 0.48288,26.96337v8.82775c0,1.37046 0.19892,2.3376 0.59812,2.90142h7.40927c1.354,-0.16051 2.44872,0.16187 3.28691,0.96577c0.83545,0.80526 1.25385,1.76966 1.25385,2.89457c0,1.7683 -0.84367,3.01667 -2.53378,3.74236c-1.04671,0.40058 -2.89594,0.48288 -5.55044,0.24144c-1.28678,-0.08232 -3.17854,-0.08232 -5.67253,0c-2.25255,0.27986 -5.87144,0.56108 -10.85943,0.84367c-4.3446,0.16051 -6.99909,-0.44311 -7.96486,-1.80945c-0.64477,-0.9644 -0.64477,-1.97132 0,-3.01667c1.12491,-1.7683 4.062,-2.6545 8.80992,-2.6545c1.68872,0 2.73269,-0.13992 3.13601,-0.42116c0.40195,-0.28122 0.6036,-0.82447 0.6036,-1.62836c0,-0.72158 0,-1.40338 0,-2.04677c0,-1.2031 0,-2.97002 0,-5.29802c0.24144,-4.09219 0.24144,-10.19547 0,-18.30437c-0.32238,-11.64001 -0.16187,-21.87388 0.48288,-30.70575c-0.08093,-0.07956 -0.20166,-0.20028 -0.36491,-0.36217c-2.9124,0.16187 -7.60407,0.08093 -14.075,-0.24281c-0.72845,0 -3.19774,0.16325 -7.40241,0.48426c1.04533,7.32147 1.68872,12.83213 1.93017,16.53195c0,0.48288 -0.08093,1.56938 -0.24144,3.2581c-0.08093,1.20584 -1.08648,1.80945 -3.01667,1.80945c-1.04671,0 -1.64895,-0.35942 -1.80945,-1.0769c-0.08093,-0.15776 -0.56383,-2.31428 -1.44866,-6.46271c-0.48288,-2.71212 -1.16743,-6.54227 -2.05089,-11.48911c0,-0.31552 -0.2826,-1.31285 -0.84367,-2.9906c-0.48014,-1.35674 -0.72021,-2.39385 -0.72021,-3.11132c0,-0.55696 0.37999,-1.25797 1.14686,-2.09342c0.76411,-0.83682 1.91096,-1.37732 3.43918,-1.6174c0.24144,0 0.62144,0 1.14686,0c0.52129,0 0.94382,0 1.2662,0c9.57403,0 13.75674,0 12.54953,0c6.51621,0.24281 12.30809,0.24281 17.37564,0c7.23917,-0.31964 14.39739,-0.9644 21.47879,-1.93017c0.48288,-0.24144 1.20584,-0.48288 2.17024,-0.72295c1.77104,-0.16051 3.21833,0.24144 4.34597,1.20722c1.12491,0.96303 1.52685,2.25118 1.20584,3.86034z" fill="#ffffff" stroke="none" stroke-width="1"/></g></g></svg>