<svg version="1.1" xmlns="http://www.w3.org/2000/svg" xmlns:xlink="http://www.w3.org/1999/xlink" width="26.41479" height="26.41479" viewBox="0,0,26.41479,26.41479"><g transform="translate(-226.7926,-166.7926)"><g data-paper-data="{&quot;isPaintingLayer&quot;:true}" fill-rule="nonzero" stroke-linejoin="miter" stroke-miterlimit="10" stroke-dasharray="" stroke-dashoffset="0" style="mix-blend-mode: normal"><path d="M233.22366,180.92797c0,0 0,4.44977 0,5.99429c0,1.24102 0.43856,2.37902 1.67958,2.37902c2.85003,0 8.48183,0 10.09977,0c1.24541,0 1.77334,-1.13362 1.77334,-2.37902c0,-1.52906 0,-5.90797 0,-5.90797" fill="none" stroke="#808080" stroke-width="2" stroke-linecap="round"/><path d="M235.94283,178.12248h3.06845c0,0 0,-5.40346 0,-6.56569c0,-0.52067 0.37801,-0.85808 0.89868,-0.85808c0.59581,0 1.14695,0.26227 1.14695,0.85808c0,1.16223 0,6.56569 0,6.56569h3.08659l-4.17759,6.73318z" fill="#808080" stroke="#808080" stroke-width="0" stroke-linecap="butt"/><path d="M226.79261,193.2074v-26.41479h26.41479v26.41479z" fill="none" stroke="none" stroke-width="none" stroke-linecap="butt"/></g></g></svg>